<?xml version="1.0" standalone="no"?>
<!DOCTYPE svg PUBLIC "-//W3C//DTD SVG 20010904//EN"
 "http://www.w3.org/TR/2001/REC-SVG-20010904/DTD/svg10.dtd">
<svg version="1.0" xmlns="http://www.w3.org/2000/svg"
 width="1280.000000pt" height="1280.000000pt" viewBox="0 0 1280.000000 1280.000000"
 preserveAspectRatio="xMidYMid meet">
<g transform="translate(0.000000,1280.000000) scale(0.100000,-0.100000)"
fill="#000000" stroke="none">
<path d="M10167 9943 c-4 -3 -7 -957 -7 -2119 l0 -2113 -437 244 c-241 134
-1000 558 -1688 943 l-1250 698 -3 -782 -2 -783 -73 33 c-39 19 -538 257
-1107 531 -2028 974 -2201 1057 -2205 1054 -1 -2 3 -278 11 -614 7 -335 13
-672 14 -747 l0 -137 -1316 789 c-723 435 -1320 790 -1325 790 -5 0 -9 -1339
-9 -3405 l0 -3406 -35 -52 -35 -52 72 -12 c140 -24 502 -33 1663 -43 1315 -11
8382 -14 9316 -3 l606 6 7 1041 c3 573 11 1632 17 2354 6 723 8 1316 5 1319
-3 3 -78 9 -168 14 -90 5 -369 20 -622 34 -252 13 -460 26 -463 28 -4 5 -20
1749 -28 3177 -3 569 -8 1077 -11 1128 l-6 92 -457 0 c-252 0 -461 -3 -464 -7z"/>
</g>
</svg>
